<svg width="156.61121505849576" height="128.06249999999997" viewBox="0 0 120.00000000000001 98.12515658128375" class="css-1j8o68f"><defs id="SvgjsDefs1850"></defs><g id="SvgjsG1851" featurekey="4K7G0D-0" transform="matrix(-1.2609986549039818,0,0,1.2609986549039818,123.29930499737932,-28.797433362845226)" fill="#ff325d"><path xmlns="http://www.w3.org/2000/svg" fill="none" d="M87.35,59.928c-1.016,0.046-4.207,0.157-7.902,0.286c-3.756,0.131-8.014,0.279-10.435,0.376  c-1.292,0.052-4.106,0.31-7.668,0.638c-8.775,0.807-23.077,2.123-33.98,2.123c-0.76,0-1.504-0.006-2.228-0.02  C14.802,63.139,9.255,61.947,6.81,61.228v3.001c0,0,0.756,1.229,1.512,1.418c0.722,0.18,15.31,1.997,21.237,1.997  c0.282,0,0.543-0.004,0.784-0.013c8.434-0.301,16.795-0.948,25.224-0.948c0.812,0,1.624,0.006,2.437,0.019  c5.145,0.081,10.9,0.759,16.404,0.759c2.598,0,5.139-0.151,7.536-0.587c1.04-0.189,9.64-1.323,10.112-1.607  c0.473-0.284,1.134-1.134,1.134-1.134v-0.472l-0.256-4.476C90.745,59.586,88.609,59.871,87.35,59.928z"></path><path xmlns="http://www.w3.org/2000/svg" fill="none" d="M6.932,60.378c2.341,0.702,7.821,1.91,18.221,2.102c11.06,0.205,26.745-1.238,36.114-2.099  c3.714-0.342,6.398-0.589,7.712-0.641c2.422-0.097,6.681-0.245,10.439-0.376c3.692-0.129,6.881-0.24,7.893-0.285  c1.234-0.056,3.35-0.339,5.522-0.739l0.077,0.417l-0.098-1.71l-0.756-0.567l0.661-3.497c0.338-2.739,0.17-4.109-0.105-5.517  c-0.232,0.14-1.549,0.874-2.885,0.258c-3.244-1.497-3.92-1.36-7.172-0.698l-0.26,0.053c-0.278,0.056-0.754,0.197-1.357,0.376  c-1.835,0.543-4.602,1.361-6.749,1.361c-1.499,0-2.695-0.399-3.061-1.568c-0.196-0.625-0.013-2.156-0.005-2.221l0.015-0.124  l0.125-0.001c0.062-0.001,6.266-0.057,7.782-0.491c6.19-1.769,6.431-3.3,6.796-5.619c0.194-1.233,0.414-2.631,1.461-4.406  l0.432-0.513c-0.157-0.098-0.301-0.171-0.404-0.171c-0.567,0-1.872,0.477-2.079,1.229c-0.23,0.834-0.498,5.493-2.552,6.521  c-2.228,1.115-5.837,1.992-9.513,1.992c-3.341,0-6.736-0.724-9.2-2.653c-0.631-0.494-3.213-3.402-3.213-3.402  s2.457-2.457,2.552-3.213c0.095-0.756-0.378-2.741-0.378-2.741c-1.451-1.397-5.534-7.184-6.867-7.184c-0.011,0-0.022,0-0.032,0.001  c-1.963,0.145-4.706,6.691-5.67,8.222L50,33.136c-3.086,2.122-4.696,4.668-8.222,6.875l-3.213,2.103l-2.552,1.607l-3.119,2.133  l-2.552,0.797l-1.985,0.473l-2.363,1.418l-1.512,1.229l-1.701,1.418l-1.796,1.134l-8.222,1.134c0,0-2.835,0.378-3.969,2.079  c-1.134,1.701-1.04,3.119-1.04,3.119L6.81,60.07v0.714L6.932,60.378z M45.464,52.982c-0.196,0-0.354-0.159-0.354-0.354  s0.159-0.354,0.354-0.354c0.196,0,0.354,0.159,0.354,0.354S45.659,52.982,45.464,52.982z M49.575,57.873  c-0.196,0-0.354-0.159-0.354-0.354s0.159-0.354,0.354-0.354s0.354,0.159,0.354,0.354S49.77,57.873,49.575,57.873z M60.018,56.136  c0.196,0,0.354,0.159,0.354,0.354s-0.159,0.354-0.354,0.354s-0.354-0.159-0.354-0.354S59.822,56.136,60.018,56.136z M58.222,53.797  c0.196,0,0.354,0.159,0.354,0.354s-0.159,0.354-0.354,0.354s-0.354-0.159-0.354-0.354S58.026,53.797,58.222,53.797z M56.119,52.179  c-0.196,0-0.354-0.159-0.354-0.354c0-0.196,0.159-0.354,0.354-0.354s0.354,0.159,0.354,0.354  C56.474,52.02,56.315,52.179,56.119,52.179z M54.576,38.606c0.01,0.007,0.255,0.175,0.598,0.076c0.296-0.086,0.36-0.3,0.366-0.324  l0.832,0.177c-0.054,0.269-0.316,0.775-0.959,0.963c-0.164,0.048-0.318,0.067-0.458,0.067c-0.505,0-0.842-0.244-0.888-0.279  L54.576,38.606z M54.324,49.131c0.196,0,0.354,0.159,0.354,0.354c0,0.196-0.159,0.354-0.354,0.354c-0.196,0-0.354-0.159-0.354-0.354  C53.969,49.29,54.128,49.131,54.324,49.131z M52.623,47.005c0.196,0,0.354,0.159,0.354,0.354c0,0.196-0.159,0.354-0.354,0.354  s-0.354-0.159-0.354-0.354C52.268,47.163,52.427,47.005,52.623,47.005z M51.488,45.54c0,0.196-0.159,0.354-0.354,0.354  s-0.354-0.159-0.354-0.354c0-0.196,0.159-0.354,0.354-0.354S51.488,45.344,51.488,45.54z M49.437,41.017  c0.01,0.007,0.256,0.175,0.597,0.076c0.296-0.086,0.36-0.3,0.366-0.324l0.832,0.177c-0.054,0.269-0.316,0.775-0.959,0.963  c-0.164,0.048-0.318,0.067-0.458,0.067c-0.504,0-0.842-0.244-0.888-0.279L49.437,41.017z M47.259,54.613  c0.196,0,0.354,0.159,0.354,0.354s-0.159,0.354-0.354,0.354s-0.354-0.159-0.354-0.354S47.064,54.613,47.259,54.613z M44.546,43.047  c0.01,0.007,0.255,0.175,0.597,0.076c0.306-0.089,0.363-0.311,0.364-0.313l0.834,0.167c-0.054,0.269-0.316,0.775-0.959,0.963  c-0.164,0.048-0.318,0.067-0.458,0.067c-0.504,0-0.842-0.244-0.888-0.279L44.546,43.047z M43.763,50.147  c0.196,0,0.354,0.159,0.354,0.354s-0.159,0.354-0.354,0.354s-0.354-0.159-0.354-0.354S43.567,50.147,43.763,50.147z M42.274,48.328  c0.196,0,0.354,0.159,0.354,0.354s-0.159,0.354-0.354,0.354s-0.354-0.159-0.354-0.354S42.078,48.328,42.274,48.328z M35.115,53.998  c-0.196,0-0.354-0.159-0.354-0.354c0-0.196,0.159-0.354,0.354-0.354s0.354,0.159,0.354,0.354  C35.47,53.84,35.311,53.998,35.115,53.998z M39.927,44.996c0.01,0.007,0.254,0.176,0.597,0.076c0.306-0.089,0.363-0.311,0.364-0.313  l0.834,0.167c-0.054,0.269-0.316,0.775-0.959,0.963c-0.164,0.048-0.318,0.067-0.458,0.067c-0.504,0-0.842-0.244-0.888-0.279  L39.927,44.996z M38.612,57.755c0.196,0,0.354,0.159,0.354,0.354c0,0.196-0.159,0.354-0.354,0.354s-0.354-0.159-0.354-0.354  C38.258,57.914,38.416,57.755,38.612,57.755z M37.171,55.77c0,0.196-0.159,0.354-0.354,0.354c-0.196,0-0.354-0.159-0.354-0.354  c0-0.196,0.159-0.354,0.354-0.354C37.012,55.416,37.171,55.575,37.171,55.77z M34.907,47.169c0.01,0.007,0.254,0.175,0.597,0.076  c0.306-0.089,0.363-0.311,0.364-0.313l0.834,0.167c-0.054,0.269-0.317,0.775-0.959,0.963c-0.164,0.048-0.318,0.067-0.458,0.067  c-0.505,0-0.842-0.244-0.888-0.279L34.907,47.169z M33.627,51.47c0.196,0,0.354,0.159,0.354,0.354c0,0.196-0.159,0.354-0.354,0.354  s-0.354-0.159-0.354-0.354C33.272,51.629,33.431,51.47,33.627,51.47z M30.149,48.847c0.01,0.007,0.254,0.176,0.597,0.076  c0.306-0.089,0.363-0.311,0.364-0.313l0.834,0.167c-0.054,0.269-0.317,0.775-0.959,0.963c-0.164,0.048-0.318,0.067-0.459,0.067  c-0.504,0-0.842-0.244-0.888-0.279L30.149,48.847z M25.113,50.514c0.01,0.007,0.254,0.176,0.597,0.076  c0.296-0.086,0.36-0.3,0.366-0.324l0.832,0.177c-0.054,0.269-0.317,0.776-0.959,0.963c-0.164,0.048-0.318,0.067-0.458,0.067  c-0.504,0-0.842-0.244-0.888-0.279L25.113,50.514z"></path><path xmlns="http://www.w3.org/2000/svg" d="M94.605,63.581l-0.378-6.615l-0.038-0.658l-0.527-0.395l-0.05-0.037l0.497-2.629l0.008-0.045l0.006-0.045  c0.416-3.369,0.108-4.865-0.248-6.597c-0.074-0.357-0.15-0.727-0.221-1.127c-0.312-1.737-0.854-3.396-1.378-5.001  c-0.573-1.754-1.115-3.412-1.37-5.139l-0.062-0.421l-0.284-0.317c-2.029-2.268-2.871-2.268-3.23-2.268  c-0.953,0-3.01,0.685-3.446,2.27c-0.065,0.238-0.111,0.539-0.181,0.994c-0.417,2.741-0.969,4.301-1.639,4.636  c-2.236,1.119-5.721,1.842-8.878,1.842c-2.428,0-5.843-0.408-8.326-2.352c-0.253-0.198-1.189-1.192-2.151-2.252  c1.895-2.05,1.985-2.775,2.022-3.071c0.114-0.912-0.246-2.573-0.406-3.245l-0.096-0.404l-0.299-0.288  c-0.411-0.396-1.159-1.312-1.952-2.282c-3.008-3.684-4.475-5.298-5.898-5.298c-0.046,0-0.092,0.002-0.137,0.005  c-2.123,0.157-3.844,3.217-5.873,7.201c-0.359,0.704-0.698,1.37-0.893,1.68l-0.016,0.026l-0.015,0.026l-0.221,0.386  c-1.381,0.985-2.481,2.042-3.547,3.066c-1.32,1.269-2.568,2.468-4.354,3.586l-0.012,0.008l-0.012,0.008l-3.203,2.096l-2.541,1.6  l-0.023,0.014l-0.022,0.015l-2.944,2.013l-2.303,0.719l-1.937,0.461l-0.213,0.051l-0.188,0.113l-2.363,1.418l-0.086,0.052  l-0.078,0.064l-1.512,1.229l-0.007,0.006l-0.007,0.006l-1.629,1.358l-1.457,0.92L12.57,52.05c-0.349,0.047-3.507,0.525-4.955,2.697  c-0.962,1.443-1.207,2.746-1.264,3.455l-0.721,1.081l-0.238,0.357v0.429v4.158v0.401l0.21,0.342c0.248,0.404,1.154,1.744,2.376,2.05  c0.962,0.241,15.68,2.04,21.58,2.04c0.301,0,0.582-0.005,0.834-0.014c2.956-0.106,5.946-0.256,8.838-0.401  c5.352-0.268,10.886-0.546,16.335-0.546c0.819,0,1.632,0.006,2.415,0.019c2.316,0.037,4.729,0.194,7.283,0.361  c3.003,0.196,6.108,0.399,9.144,0.399c2.986,0,5.534-0.199,7.789-0.609c0.288-0.052,1.327-0.201,2.53-0.372  c7.196-1.027,7.649-1.168,8.058-1.413c0.649-0.39,1.33-1.231,1.524-1.479l0.299-0.384v-0.486v-0.472v-0.041L94.605,63.581z   M7.755,58.653c0,0-0.095-1.418,1.04-3.119c1.134-1.701,3.969-2.079,3.969-2.079l8.222-1.134l1.796-1.134l1.701-1.418l1.512-1.229  l2.363-1.418l1.985-0.473l2.552-0.797l3.119-2.133l2.552-1.607l3.213-2.103c3.526-2.207,5.136-4.754,8.222-6.875l0.378-0.661  c0.964-1.531,3.708-8.077,5.67-8.222c0.011-0.001,0.021-0.001,0.032-0.001c1.333,0,5.416,5.786,6.867,7.184  c0,0,0.473,1.985,0.378,2.741c-0.094,0.756-2.552,3.213-2.552,3.213s2.582,2.908,3.213,3.402c2.464,1.929,5.859,2.653,9.2,2.653  c3.676,0,7.285-0.877,9.513-1.992c2.054-1.028,2.322-5.687,2.552-6.521c0.207-0.751,1.512-1.229,2.079-1.229  c0.103,0,0.248,0.073,0.404,0.171l-0.432,0.513c-1.047,1.775-1.267,3.172-1.461,4.406c-0.365,2.319-0.606,3.85-6.796,5.619  c-1.516,0.433-7.72,0.49-7.782,0.491l-0.125,0.001l-0.015,0.124c-0.008,0.065-0.19,1.596,0.005,2.221  c0.367,1.169,1.563,1.568,3.061,1.568c2.147,0,4.913-0.818,6.749-1.361c0.603-0.178,1.079-0.319,1.357-0.376l0.26-0.053  c3.252-0.662,3.928-0.799,7.172,0.698c1.335,0.616,2.653-0.118,2.885-0.258c0.275,1.407,0.443,2.778,0.105,5.517l-0.661,3.497  l0.756,0.567l0.098,1.71l-0.077-0.417c-2.172,0.4-4.288,0.683-5.522,0.739c-1.011,0.046-4.201,0.157-7.893,0.285  c-3.758,0.131-8.017,0.279-10.439,0.376c-1.315,0.053-3.998,0.3-7.712,0.641c-9.37,0.862-25.054,2.304-36.114,2.099  c-10.399-0.192-15.88-1.4-18.221-2.102L6.81,60.784V60.07L7.755,58.653z M93.19,64.134c0,0-0.662,0.851-1.134,1.134  c-0.473,0.284-9.073,1.418-10.112,1.607c-2.397,0.436-4.938,0.587-7.536,0.587c-5.505,0-11.259-0.678-16.404-0.759  c-0.814-0.013-1.625-0.019-2.437-0.019c-8.429,0-16.79,0.646-25.224,0.948c-0.24,0.009-0.502,0.013-0.784,0.013  c-5.927,0-20.515-1.817-21.237-1.997c-0.756-0.189-1.512-1.418-1.512-1.418v-3.001c2.445,0.719,7.992,1.911,18.327,2.103  c0.724,0.013,1.468,0.02,2.228,0.02c10.903,0,25.204-1.315,33.98-2.123c3.562-0.328,6.376-0.586,7.668-0.638  c2.42-0.097,6.678-0.245,10.435-0.376c3.695-0.129,6.886-0.24,7.902-0.286c1.259-0.057,3.395-0.341,5.584-0.742l0.256,4.476V64.134z  "></path><circle xmlns="http://www.w3.org/2000/svg" cx="33.627" cy="51.825" r="0.354"></circle><circle xmlns="http://www.w3.org/2000/svg" cx="35.115" cy="53.644" r="0.354"></circle><circle xmlns="http://www.w3.org/2000/svg" cx="36.816" cy="55.77" r="0.354"></circle><circle xmlns="http://www.w3.org/2000/svg" cx="38.612" cy="58.109" r="0.354"></circle><circle xmlns="http://www.w3.org/2000/svg" cx="42.274" cy="48.682" r="0.354"></circle><circle xmlns="http://www.w3.org/2000/svg" cx="43.763" cy="50.501" r="0.354"></circle><circle xmlns="http://www.w3.org/2000/svg" cx="45.464" cy="52.628" r="0.354"></circle><circle xmlns="http://www.w3.org/2000/svg" cx="47.259" cy="54.967" r="0.354"></circle><circle xmlns="http://www.w3.org/2000/svg" cx="51.134" cy="45.54" r="0.354"></circle><circle xmlns="http://www.w3.org/2000/svg" cx="52.623" cy="47.359" r="0.354"></circle><circle xmlns="http://www.w3.org/2000/svg" cx="54.324" cy="49.486" r="0.354"></circle><circle xmlns="http://www.w3.org/2000/svg" cx="56.119" cy="51.825" r="0.354"></circle><circle xmlns="http://www.w3.org/2000/svg" cx="58.222" cy="54.152" r="0.354"></circle><circle xmlns="http://www.w3.org/2000/svg" cx="60.018" cy="56.491" r="0.354"></circle><circle xmlns="http://www.w3.org/2000/svg" cx="49.575" cy="57.519" r="0.354"></circle><path xmlns="http://www.w3.org/2000/svg" d="M25.949,51.406c0.643-0.187,0.906-0.694,0.959-0.963l-0.832-0.177c-0.006,0.024-0.07,0.238-0.366,0.324  c-0.343,0.101-0.587-0.068-0.597-0.076l-0.511,0.68c0.046,0.035,0.383,0.279,0.888,0.279C25.631,51.473,25.785,51.454,25.949,51.406  z"></path><path xmlns="http://www.w3.org/2000/svg" d="M30.984,49.739c0.643-0.188,0.906-0.693,0.959-0.963L31.11,48.61c0,0.002-0.058,0.224-0.364,0.313  c-0.343,0.1-0.587-0.068-0.597-0.076l-0.511,0.68c0.046,0.035,0.383,0.279,0.888,0.279C30.666,49.806,30.82,49.787,30.984,49.739z"></path><path xmlns="http://www.w3.org/2000/svg" d="M35.742,48.062c0.643-0.188,0.906-0.693,0.959-0.963l-0.834-0.167c0,0.002-0.058,0.224-0.364,0.313  c-0.343,0.1-0.587-0.069-0.597-0.076l-0.511,0.68c0.046,0.035,0.383,0.279,0.888,0.279C35.424,48.129,35.578,48.11,35.742,48.062z"></path><path xmlns="http://www.w3.org/2000/svg" d="M40.763,45.888c0.643-0.187,0.906-0.693,0.959-0.963l-0.834-0.167c-0.001,0.002-0.058,0.224-0.364,0.313  c-0.344,0.1-0.587-0.068-0.597-0.076l-0.511,0.68c0.046,0.035,0.383,0.279,0.888,0.279C40.445,45.955,40.599,45.936,40.763,45.888z"></path><path xmlns="http://www.w3.org/2000/svg" d="M45.382,43.94c0.643-0.187,0.906-0.693,0.959-0.963l-0.834-0.167c-0.001,0.002-0.058,0.224-0.364,0.313  c-0.342,0.1-0.587-0.069-0.597-0.076l-0.511,0.68c0.046,0.035,0.383,0.279,0.888,0.279C45.064,44.007,45.218,43.988,45.382,43.94z"></path><path xmlns="http://www.w3.org/2000/svg" d="M50.273,41.909c0.643-0.188,0.906-0.693,0.959-0.963L50.4,40.769c-0.006,0.024-0.07,0.237-0.366,0.324  c-0.342,0.099-0.587-0.068-0.597-0.076l-0.511,0.68c0.046,0.035,0.383,0.279,0.888,0.279C49.955,41.976,50.109,41.957,50.273,41.909  z"></path><path xmlns="http://www.w3.org/2000/svg" d="M55.412,39.498c0.643-0.188,0.906-0.693,0.959-0.963l-0.832-0.177c-0.006,0.024-0.07,0.237-0.366,0.324  c-0.342,0.099-0.587-0.069-0.598-0.076l-0.511,0.68c0.046,0.035,0.383,0.279,0.888,0.279C55.094,39.565,55.248,39.546,55.412,39.498  z"></path></g><g id="SvgjsG1852" featurekey="wPuqcM-0" transform="matrix(1.0727695274918063,0,0,1.0727695274918063,-0.8582153150716213,71.9495800081764)" fill="#ff325d"><path d="M2.62 14.74 c0 2.3 0.9 4.04 2.82 4.04 c1.12 0 2.86 -0.74 2.86 -3.52 c0 -1.7 -0.28 -4.44 -2.82 -4.44 c-2.72 0 -2.86 2.58 -2.86 3.92 z M9.98 9.54 l0 9.6 c0 1.5 -0.02 5.26 -4.86 5.26 c-1.24 0 -3.66 -0.34 -4 -3.12 l1.76 0 c0.32 1.66 1.94 1.66 2.36 1.66 c3.04 0 2.98 -2.44 2.98 -3.68 l0 -0.44 l-0.04 0 l0 0.08 c-0.46 0.74 -1.38 1.4 -2.78 1.4 c-3.56 0 -4.6 -3.34 -4.6 -5.84 c0 -2.94 1.58 -5.22 4.36 -5.22 c1.9 0 2.7 1.18 3.12 1.78 l0.04 0 l0 -1.48 l1.66 0 z M19.54 16.72 l1.76 0 c-0.06 0.5 -0.54 1.98 -1.86 2.86 c-0.48 0.32 -1.16 0.72 -2.84 0.72 c-2.94 0 -4.68 -2.22 -4.68 -5.24 c0 -3.24 1.56 -5.82 5.02 -5.82 c3.02 0 4.5 2.4 4.5 6.1 l-7.64 0 c0 2.18 1.02 3.44 3.04 3.44 c1.66 0 2.64 -1.28 2.7 -2.06 z M13.8 13.940000000000001 l5.82 0 c-0.1 -1.62 -0.78 -3.12 -2.92 -3.12 c-1.62 0 -2.9 1.5 -2.9 3.12 z M27.380000000000003 11 l-1.68 0 l0 6.8 c0 0.82 0.7 0.82 1.06 0.82 l0.62 0 l0 1.38 c-0.64 0.06 -1.14 0.14 -1.32 0.14 c-1.74 0 -2.12 -0.98 -2.12 -2.24 l0 -6.9 l-1.42 0 l0 -1.46 l1.42 0 l0 -2.92 l1.76 0 l0 2.92 l1.68 0 l0 1.46 z M35.440000000000005 14.219999999999999 l0 5.78 l-1.94 0 l0 -5.78 l-5.42 -8.58 l2.26 0 l4.12 6.9 l4.12 -6.9 l2.28 0 z M41.84 14.76 c0 -2.7 1.52 -5.52 4.86 -5.52 s4.86 2.82 4.86 5.52 s-1.52 5.52 -4.86 5.52 s-4.86 -2.82 -4.86 -5.52 z M43.660000000000004 14.76 c0 1.4 0.52 4 3.04 4 s3.04 -2.6 3.04 -4 s-0.52 -4 -3.04 -4 s-3.04 2.6 -3.04 4 z M62.040000000000006 20 l-1.66 0 l0 -1.52 l-0.04 -0.04 c-0.74 1.22 -1.64 1.86 -3.32 1.86 c-1.54 0 -3.4 -0.74 -3.4 -3.24 l0 -7.52 l1.76 0 l0 6.94 c0 1.72 0.88 2.3 2.02 2.3 c2.22 0 2.88 -1.96 2.88 -3.48 l0 -5.76 l1.76 0 l0 10.46 z M66.68 13.92 l0 6.08 l-1.76 0 l0 -10.46 l1.66 0 l0 1.74 l0.04 0 c0.7 -1.22 1.62 -2.04 2.94 -2.04 c0.22 0 0.32 0.02 0.46 0.06 l0 1.82 l-0.66 0 c-1.64 0 -2.68 1.28 -2.68 2.8 z M72.88000000000001 15.26 c0 2.78 1.74 3.52 2.86 3.52 c1.92 0 2.82 -1.74 2.82 -4.04 c0 -1.34 -0.14 -3.92 -2.86 -3.92 c-2.54 0 -2.82 2.74 -2.82 4.44 z M71.2 24.14 l0 -14.6 l1.66 0 l0 1.48 l0.04 0 c0.42 -0.6 1.22 -1.78 3.12 -1.78 c2.78 0 4.36 2.28 4.36 5.22 c0 2.5 -1.04 5.84 -4.6 5.84 c-1.4 0 -2.32 -0.66 -2.78 -1.4 l-0.04 0 l0 5.24 l-1.76 0 z M84.02000000000001 12.719999999999999 l-1.62 0 c0.08 -2.5 1.74 -3.48 4.32 -3.48 c0.84 0 3.88 0.24 3.88 2.92 l0 6.02 c0 0.44 0.22 0.62 0.58 0.62 c0.16 0 0.38 -0.04 0.58 -0.08 l0 1.28 c-0.3 0.08 -0.56 0.2 -0.96 0.2 c-1.56 0 -1.8 -0.8 -1.86 -1.6 c-0.68 0.74 -1.74 1.7 -3.78 1.7 c-1.92 0 -3.28 -1.22 -3.28 -3.02 c0 -0.88 0.26 -2.92 3.18 -3.28 l2.9 -0.36 c0.42 -0.04 0.92 -0.2 0.92 -1.24 c0 -1.1 -0.8 -1.7 -2.46 -1.7 c-2 0 -2.28 1.22 -2.4 2.02 z M88.84 16.38 l0 -1.72 c-0.28 0.22 -0.72 0.38 -2.9 0.66 c-0.86 0.12 -2.24 0.38 -2.24 1.7 c0 1.14 0.58 1.82 1.9 1.82 c1.64 0 3.24 -1.06 3.24 -2.46 z M95.38000000000001 9.54 l0 10.46 l-1.76 0 l0 -10.46 l1.76 0 z M95.38000000000001 7.640000000000001 l-1.76 0 l0 -2 l1.76 0 l0 2 z M100.02000000000001 13.92 l0 6.08 l-1.76 0 l0 -10.46 l1.66 0 l0 1.74 l0.04 0 c0.7 -1.22 1.62 -2.04 2.94 -2.04 c0.22 0 0.32 0.02 0.46 0.06 l0 1.82 l-0.66 0 c-1.64 0 -2.68 1.28 -2.68 2.8 z M112.32000000000001 12.52 l-1.7 0 c-0.02 -0.66 -0.26 -1.76 -2.48 -1.76 c-0.54 0 -2.08 0.18 -2.08 1.48 c0 0.86 0.54 1.06 1.9 1.4 l1.76 0.44 c2.18 0.54 2.94 1.34 2.94 2.76 c0 2.16 -1.78 3.46 -4.14 3.46 c-4.14 0 -4.44 -2.4 -4.5 -3.66 l1.7 0 c0.06 0.82 0.3 2.14 2.78 2.14 c1.26 0 2.4 -0.5 2.4 -1.66 c0 -0.84 -0.58 -1.12 -2.08 -1.5 l-2.04 -0.5 c-1.46 -0.36 -2.42 -1.1 -2.42 -2.54 c0 -2.3 1.9 -3.34 3.96 -3.34 c3.74 0 4 2.76 4 3.28 z"></path></g></svg>